<svg id="gift" xmlns="http://www.w3.org/2000/svg" width="34.77" height="32.046" viewBox="0 0 34.77 32.046">
  <defs>
    <style>
      .cls-1 {
        fill: #ff3d43;
      }

      .cls-2 {
        fill: #d62d2d;
      }

      .cls-3 {
        fill: #9e1219;
      }

      .cls-4 {
        fill: #ffd039;
      }

      .cls-5 {
        fill: #f4b70c;
      }

      .cls-6 {
        fill: #ffdf65;
      }

      .cls-7 {
        fill: #ffcd2c;
      }
    </style>
  </defs>
  <path id="Path_245" data-name="Path 245" class="cls-1" d="M60.427,25.779c-.2-.256-4.987-6.254-8.764-5.732a4.005,4.005,0,0,0-3.066,2.8c-.959,2.306-1.038,4.181-.237,5.572a4.446,4.446,0,0,0,3.06,2.022.508.508,0,0,0,.067,0h8.54a.51.51,0,0,0,.51-.51V26.095A.51.51,0,0,0,60.427,25.779Z" transform="translate(-44.56 -20.014)"/>
  <path id="Path_246" data-name="Path 246" class="cls-1" d="M288.157,22.844a4.005,4.005,0,0,0-3.066-2.8c-3.777-.521-8.562,5.477-8.764,5.732a.511.511,0,0,0-.11.316v3.837a.51.51,0,0,0,.51.51h8.54a.509.509,0,0,0,.067,0,4.446,4.446,0,0,0,3.06-2.022C289.2,27.025,289.116,25.15,288.157,22.844Z" transform="translate(-257.424 -20.014)"/>
  <path id="Path_247" data-name="Path 247" class="cls-2" d="M60.034,96.166h-8.54a.506.506,0,0,1-.067,0,4.445,4.445,0,0,1-3.06-2.022,3.968,3.968,0,0,1-.424-1.085,4.9,4.9,0,0,0,.424,3.432,4.446,4.446,0,0,0,3.06,2.022.511.511,0,0,0,.067,0h8.54a.51.51,0,0,0,.51-.51V95.656A.51.51,0,0,1,60.034,96.166Z" transform="translate(-44.567 -88.086)"/>
  <path id="Path_248" data-name="Path 248" class="cls-2" d="M288.394,94.14a4.445,4.445,0,0,1-3.06,2.022.512.512,0,0,1-.067,0h-8.54a.51.51,0,0,1-.51-.51V98a.51.51,0,0,0,.51.51h8.54a.509.509,0,0,0,.067,0,4.446,4.446,0,0,0,3.06-2.022,4.9,4.9,0,0,0,.424-3.432A3.965,3.965,0,0,1,288.394,94.14Z" transform="translate(-257.424 -88.085)"/>
  <path id="Path_249" data-name="Path 249" class="cls-2" d="M224.169,101.886h-3.837a.51.51,0,0,0-.51.51v3.837a.51.51,0,0,0,.51.51h3.837a.51.51,0,0,0,.51-.51V102.4A.51.51,0,0,0,224.169,101.886Z" transform="translate(-204.866 -96.316)"/>
  <path id="Path_250" data-name="Path 250" class="cls-3" d="M219.823,138.781v1.837a.51.51,0,0,0,.51.51h3.837a.51.51,0,0,0,.51-.51v-1.837Z" transform="translate(-204.867 -130.7)"/>
  <path id="Path_251" data-name="Path 251" class="cls-4" d="M66.994,232.366H38.4a.51.51,0,0,0-.51.51v14.871a2.22,2.22,0,0,0,2.218,2.218H65.286a2.22,2.22,0,0,0,2.218-2.218V232.876A.51.51,0,0,0,66.994,232.366Z" transform="translate(-35.312 -217.918)"/>
  <path id="Path_252" data-name="Path 252" class="cls-5" d="M66.994,232.366H38.4a.51.51,0,0,0-.51.51v2.192H67.5v-2.192A.51.51,0,0,0,66.994,232.366Z" transform="translate(-35.312 -217.918)"/>
  <path id="Path_253" data-name="Path 253" class="cls-6" d="M34.26,158.281H.51a.51.51,0,0,0-.51.51v5.04a.51.51,0,0,0,.51.51H34.26a.51.51,0,0,0,.51-.51v-5.04A.51.51,0,0,0,34.26,158.281Z" transform="translate(0 -148.874)"/>
  <path id="Path_254" data-name="Path 254" class="cls-7" d="M0,212.865V214.7a.51.51,0,0,0,.51.51H34.26a.51.51,0,0,0,.51-.51v-1.837Z" transform="translate(0 -199.744)"/>
  <path id="Path_255" data-name="Path 255" class="cls-1" d="M216.492,158.281h-5.046a.51.51,0,0,0-.51.51V180.41a.51.51,0,0,0,.51.51h5.046a.51.51,0,0,0,.51-.51V158.791A.51.51,0,0,0,216.492,158.281Z" transform="translate(-196.584 -148.874)"/>
  <path id="Path_256" data-name="Path 256" class="cls-2" d="M267.44,158.281H265.6V180.92h1.837a.51.51,0,0,0,.51-.51V158.791A.51.51,0,0,0,267.44,158.281Z" transform="translate(-247.532 -148.874)"/>
</svg>
